<svg width="248" height="95" viewBox="0 0 248 95" fill="none" xmlns="http://www.w3.org/2000/svg">
<g clip-path="url(#clip0_330_227)">
<path d="M87.4487 49.707C90.4027 48.8926 93.1672 47.6321 95.7421 45.9477L91.7961 38.4961C90.3135 40.1805 88.4743 41.5526 86.2894 42.59C84.1046 43.6274 81.7303 44.1517 79.1442 44.1517C76.2682 44.1517 73.6041 43.3486 71.1406 41.7311C68.6882 40.1136 66.7152 37.8603 65.2215 34.96C63.7389 32.0596 62.992 28.6462 62.992 24.7196C62.992 21.0496 63.5717 17.8816 64.7421 15.2267C65.9014 12.5718 67.5958 10.5304 69.8029 9.12484C72.01 7.70815 74.6296 7.00538 77.6504 7.00538C79.9802 7.00538 82.2319 7.46274 84.3833 8.37745C86.5458 9.29217 88.7418 10.72 90.9712 12.661L95.2851 4.31701C92.8551 2.87801 90.3024 1.79596 87.6159 1.08204C84.9406 0.368117 82.2876 0 79.6569 0C75.9895 0 72.5339 0.591218 69.3124 1.78481C66.0909 2.9784 63.2373 4.69628 60.7515 6.96076C58.2657 9.22524 56.3261 11.9805 54.9104 15.2267C53.4947 18.4839 52.7925 22.1874 52.7925 26.3594C52.7925 31.223 53.8626 35.5066 55.9917 39.21C58.1208 42.9135 61.097 45.7915 64.9205 47.8441C68.7439 49.9077 73.1805 50.934 78.2412 50.934C81.4182 50.934 84.4836 50.5213 87.4264 49.707H87.4487Z" fill="black" fill-opacity="0.87"/>
<path d="M118.839 0.970551H102.843V8.34405H118.839V49.9636H128.514V8.34405H144.589V0.970551H128.514H118.839Z" fill="black" fill-opacity="0.87"/>
<path d="M190.481 15.6395C190.481 12.6164 189.69 10.0062 188.096 7.81976C186.502 5.63337 184.317 3.94895 181.508 2.75536C178.71 1.56177 175.444 0.970551 171.721 0.970551H155.792V49.9636H165.021V33.4876C165.322 33.521 165.612 33.5656 165.913 33.5768C167.351 33.6772 168.443 33.7218 169.19 33.7218C172.311 33.7218 175.176 33.2421 177.785 32.2717C180.393 31.3012 182.634 29.9737 184.518 28.2893C186.401 26.6049 187.862 24.6751 188.909 22.5221C189.946 20.358 190.47 18.0713 190.47 15.6395H190.481ZM179.735 22.7452C178.966 24.0615 177.774 25.032 176.168 25.6455C174.552 26.2702 172.49 26.5714 169.959 26.5714C168.566 26.5714 167.284 26.5379 166.091 26.4599C165.768 26.4376 165.411 26.4152 165.055 26.3818V7.96477H170.194C173.471 7.96477 176.068 8.81256 178.008 10.497C179.947 12.1814 180.906 14.6132 180.906 17.7924C180.906 19.778 180.516 21.4289 179.758 22.7452H179.735Z" fill="black" fill-opacity="0.87"/>
<path d="M244.834 12.1367C242.727 8.3663 239.818 5.39905 236.128 3.23497C232.427 1.07089 228.203 0 223.443 0C219.92 0 216.587 0.613528 213.433 1.82943C210.278 3.04533 207.48 4.77437 205.028 7.00538C202.576 9.23639 200.647 11.9471 199.265 15.1263C197.872 18.3055 197.18 21.8751 197.18 25.8463C197.18 30.6653 198.251 34.9711 200.38 38.7638C202.509 42.5677 205.44 45.535 209.164 47.699C212.887 49.8631 217.145 50.934 221.96 50.934C225.483 50.934 228.805 50.3428 231.926 49.1492C235.047 47.9556 237.811 46.2377 240.219 43.9733C242.627 41.7199 244.522 38.9981 245.915 35.8189C247.309 32.6397 248 29.0701 248 25.0989C248 20.2353 246.941 15.9183 244.834 12.1367ZM236.162 35.8189C235.025 38.4515 233.386 40.4817 231.246 41.9207C229.117 43.3597 226.586 44.0848 223.655 44.0848C220.723 44.0848 218.048 43.2928 215.618 41.6976C213.188 40.1136 211.237 37.838 209.777 34.8819C208.316 31.9258 207.581 28.4119 207.581 24.3403C207.581 20.7707 208.16 17.6585 209.331 15.037C210.501 12.4044 212.129 10.3854 214.247 8.96867C216.353 7.55198 218.795 6.84921 221.581 6.84921C224.602 6.84921 227.344 7.64122 229.808 9.23639C232.26 10.8316 234.222 13.0849 235.682 16.0075C237.143 18.9413 237.878 22.4663 237.878 26.5825C237.878 30.1075 237.31 33.1863 236.162 35.8189Z" fill="black" fill-opacity="0.87"/>
<path d="M48.055 49.9636L29.3836 0.970551H21.3466L1.62744 49.9636H11.0802L16.1298 35.2166L21.224 36.1425C21.7145 36.2317 22.1046 36.6221 22.1938 37.1129L24.3006 48.6584C24.3117 48.7365 24.4343 48.7365 24.4455 48.6584L26.5523 37.1129C26.6415 36.6221 27.0316 36.2317 27.5221 36.1425L32.7724 35.1831L37.9334 49.9636H48.055ZM27.5221 31.7808C27.0316 31.6916 26.6415 31.3012 26.5523 30.8103L24.4455 19.2648C24.4343 19.1868 24.3117 19.1868 24.3006 19.2648L22.1938 30.8103C22.1046 31.3012 21.7145 31.6916 21.224 31.7808L17.055 32.5394L24.3898 11.144L31.8806 32.5728L27.5444 31.7808H27.5221Z" fill="black" fill-opacity="0.87"/>
<path d="M15.7285 91.1811C14.703 91.5604 13.5548 91.7389 12.2841 91.7389C10.4671 91.7389 8.86192 91.3373 7.47968 90.5453C6.09745 89.7533 5.02733 88.6378 4.25818 87.2211C3.48903 85.8044 3.11003 84.1869 3.11003 82.3686C3.11003 80.5504 3.48903 78.8325 4.25818 77.4381C5.02733 76.0437 6.07515 74.9394 7.40165 74.1474C8.7393 73.3553 10.2107 72.9538 11.8382 72.9538C13.0086 72.9538 14.101 73.1657 15.1266 73.5896C16.1521 74.0135 17.055 74.6159 17.8353 75.3967L19.7415 73.4C18.7048 72.5522 17.5343 71.9052 16.2524 71.4478C14.9705 70.9905 13.5771 70.7674 12.0834 70.7674C9.80942 70.7674 7.75836 71.2917 5.94139 72.3514C4.12442 73.4111 2.6753 74.8278 1.60518 76.6015C0.535059 78.3751 0 80.383 0 82.6252C0 84.8674 0.512765 86.7079 1.5383 88.437C2.56383 90.166 3.96836 91.5269 5.76304 92.542C7.54657 93.546 9.61992 94.0591 11.9608 94.0591C13.5214 94.0591 14.9705 93.836 16.297 93.401C17.6347 92.9659 18.8385 92.3301 19.9087 91.5269L18.4484 89.6194C17.6681 90.2999 16.7652 90.8353 15.7397 91.2034L15.7285 91.1811Z" fill="black" fill-opacity="0.87"/>
<path d="M45.5579 71.0483H36.395V73.3908H45.5579V93.7377H48.4896V73.3908H57.7082V71.0483H48.4896H45.5579Z" fill="black" fill-opacity="0.87"/>
<path d="M91.8296 71.0483H91.3949L76.4801 90.7481L76.6138 71.0483H73.8828V93.7377H75.2985H76.4689H77.004L91.8073 74.3167L91.6847 93.7377H94.4157V71.0483H93.1449H91.8296Z" fill="black" fill-opacity="0.87"/>
<path d="M119.864 71.7505L110.333 93.7371H113.533L121.068 74.6397L128.748 93.7371H132.148L122.629 71.7505H119.864Z" fill="black" fill-opacity="0.87"/>
<path d="M166.024 71.0483H165.59L150.675 90.7481L150.809 71.0483H148.078V93.7377H149.493H150.664H151.199L166.002 74.3167L165.88 93.7377H168.611V71.0483H167.34H166.024Z" fill="black" fill-opacity="0.87"/>
<path d="M201.216 91.1811C200.19 91.5604 199.042 91.7389 197.771 91.7389C195.954 91.7389 194.349 91.3373 192.967 90.5453C191.585 89.7533 190.514 88.6378 189.745 87.2211C188.976 85.8044 188.597 84.1869 188.597 82.3686C188.597 80.5504 188.976 78.8325 189.745 77.4381C190.514 76.0437 191.562 74.9394 192.889 74.1474C194.226 73.3553 195.698 72.9538 197.325 72.9538C198.496 72.9538 199.588 73.1657 200.614 73.5896C201.639 74.0135 202.542 74.6159 203.322 75.3967L205.229 73.4C204.192 72.5522 203.021 71.9052 201.739 71.4478C200.458 70.9905 199.064 70.7674 197.57 70.7674C195.296 70.7674 193.245 71.2917 191.428 72.3514C189.611 73.4111 188.162 74.8278 187.092 76.6015C186.022 78.3751 185.487 80.383 185.487 82.6252C185.487 84.8674 186 86.7079 187.025 88.437C188.051 90.166 189.455 91.5269 191.25 92.542C193.034 93.546 195.107 94.0591 197.448 94.0591C199.008 94.0591 200.458 93.836 201.784 93.401C203.122 92.9659 204.326 92.3301 205.396 91.5269L203.935 89.6194C203.155 90.2999 202.252 90.8353 201.227 91.2034L201.216 91.1811Z" fill="black" fill-opacity="0.87"/>
<path d="M231.057 71.0483H221.883V73.3908H231.057V93.7377H233.977V73.3908H243.196V71.0483H233.977H231.057Z" fill="black" fill-opacity="0.87"/>
</g>
<defs>
<clipPath id="clip0_330_227">
<rect width="248" height="94.0372" fill="white"/>
</clipPath>
</defs>
</svg>
